<?xml version="1.0" encoding="UTF-8"?>
<svg id="Calque_1" data-name="Calque 1" xmlns="http://www.w3.org/2000/svg" viewBox="0 0 377.68 377.68">
  <defs>
    <style>
      .cls-1 {
        fill: none;
      }

      .cls-2 {
        fill: #fff;
      }

      .cls-3 {
        fill: #020000;
      }
    </style>
  </defs>
  <g>
    <path class="cls-3" d="M188.84,377.18C84.99,377.18.5,292.69.5,188.84S84.99.5,188.84.5s188.34,84.49,188.34,188.34-84.49,188.34-188.34,188.34Z"/>
    <path d="M188.84,1c25.36,0,49.96,4.97,73.12,14.76,22.37,9.46,42.46,23,59.71,40.26,17.25,17.25,30.8,37.34,40.26,59.71,9.79,23.16,14.76,47.76,14.76,73.12s-4.97,49.96-14.76,73.12c-9.46,22.37-23,42.46-40.26,59.71-17.25,17.25-37.34,30.8-59.71,40.26-23.16,9.79-47.76,14.76-73.12,14.76s-49.96-4.97-73.12-14.76c-22.37-9.46-42.46-23-59.71-40.26-17.25-17.25-30.8-37.34-40.26-59.71C5.97,238.8,1,214.2,1,188.84s4.97-49.96,14.76-73.12c9.46-22.37,23-42.46,40.26-59.71,17.25-17.25,37.34-30.8,59.71-40.26C138.88,5.97,163.48,1,188.84,1M188.84,0C84.55,0,0,84.55,0,188.84s84.55,188.84,188.84,188.84,188.84-84.55,188.84-188.84S293.13,0,188.84,0h0Z"/>
  </g>
  <g>
    <rect class="cls-1" x="124.13" y="239.92" width="248.83" height="62.41"/>
    <path class="cls-2" d="M127.2,266.02l8.13,6.03v3.71l-1.61,3.66h-8.02l-1.56-3.66v-3.71h3.07v3.71l.27.7h4.47l.32-.7v-3.71l-8.13-6.03v-14.32l1.56-3.66h8.02l1.61,3.66v12.05h-3.07v-12.05l-.32-.7h-4.47l-.27.7v14.32Z"/>
    <path class="cls-2" d="M140.33,248.04h5.97v2.96h-5.97v24.76l.27.7h4.47l.32-.7v-6.67h3.01v6.67l-1.56,3.66h-8.02l-1.56-3.66v-24.76h-1.24v-2.96h1.24v-4.79h3.07v4.79Z"/>
    <path class="cls-2" d="M153.46,275.76l.27.7h4.47l.32-.7v-24.76h-1.24v-2.96h5.49v2.96h-1.24v24.76l-1.56,3.66h-8.02l-1.56-3.66v-24.76h-1.24v-2.96h5.49v2.96h-1.18v24.76Z"/>
    <path class="cls-2" d="M171.49,279.42h-6.57l-1.56-3.66v-24.06l1.56-3.66h6.57v-5.17h-1.24v-2.96h5.49v2.96h-1.18v33.58h1.18v2.96h-4.25ZM166.43,275.76l.27.7h4.79v-25.46h-4.79l-.27.7v24.06Z"/>
    <path class="cls-2" d="M180.8,276.46h1.18v2.96h-5.49v-2.96h1.24v-25.46h-1.24v-2.96h5.49v2.96h-1.18v25.46ZM180.8,242.88v3.07h-3.07v-3.07h3.07Z"/>
    <path class="cls-2" d="M192.16,279.42h-8.02l-1.56-3.66v-24.06l1.56-3.66h8.02l1.61,3.66v24.06l-1.61,3.66ZM185.64,275.76l.27.7h4.47l.32-.7v-24.06l-.32-.7h-4.47l-.27.7v24.06Z"/>
    <path class="cls-2" d="M218.37,279.42h-6.51l-.97-2.21v2.21h-5.11l-1.56-3.66v-24.76h-1.24v-2.96h5.49v2.96h-1.18v24.76l.27.7h3.01l-.32-.7v-24.76h-1.24v-2.96h5.54v2.96h-1.24v24.76l.32.7h2.74v-25.46h-1.24v-2.96h5.49v2.96h-1.24v28.42h-1.02Z"/>
    <path class="cls-2" d="M224.23,275.76l.27.7h4.47l.32-.7v-6.67h3.07v6.67l-1.62,3.66h-8.02l-1.56-3.66v-24.06l1.56-3.66h8.02l1.62,3.66v12.05h-8.13v12ZM224.23,260.8h5.06v-9.09l-.32-.7h-4.47l-.27.7v9.09Z"/>
    <path class="cls-2" d="M237.36,239.92h1.18v2.96h-1.18v5.17h6.51l1.56,3.66v24.06l-1.56,3.66h-10.82v-2.96h1.24v-33.58h-1.24v-2.96h4.31ZM242.42,275.76v-24.06l-.32-.7h-4.74v25.46h4.74l.32-.7Z"/>
  </g>
  <g>
    <rect class="cls-1" x="114.48" y="86.44" width="192.54" height="153.69"/>
    <path class="cls-2" d="M155.88,100.04v-13.6h27.99v20.02h-3.89v103.78h3.89v20.02h-27.99v-20.02h3.89v-73.85l-15.55-15.74v89.59h3.89v20.02h-27.79v-20.02h3.89v-103.78h-3.89v-20.02h22.35l13.22,13.6ZM179.98,102.57v-12.24h-20.21v12.24h3.89v12.24l-23.32-24.49h-16.13v12.24h3.89v111.56h-3.89v12.24h20.21v-12.24h-4.08v-103.39l23.32,24.68v78.71h-3.89v12.24h20.21v-12.24h-3.89v-111.56h3.89Z"/>
    <path class="cls-2" d="M250.72,86.44v25.46h-20.02v-5.44h-13.99v64.91h34.01v58.89h-54.03v-25.46h20.02v5.44h13.99v-20.21h-34.01v-103.59h54.03ZM200.58,90.32v95.81h34.01v27.99h-21.77v-5.44h-12.24v17.69h46.26v-51.11h-34.01v-72.69h21.77v5.44h12.24v-17.69h-46.26Z"/>
  </g>
</svg>