<?xml version="1.0" encoding="UTF-8"?>
<svg id="Calque_1" data-name="Calque 1" xmlns="http://www.w3.org/2000/svg" viewBox="0 0 760.59 760.59">
  <defs>
    <style>
      .cls-1 {
        fill: none;
      }

      .cls-2 {
        fill: #fff;
      }

      .cls-3 {
        fill: #020000;
      }
    </style>
  </defs>
  <g>
    <path class="cls-3" d="M380.29,760.09c-51.27,0-101.01-10.04-147.83-29.85-45.23-19.13-85.84-46.51-120.72-81.39-34.88-34.88-62.26-75.5-81.39-120.72C10.54,481.3.5,431.56.5,380.29s10.04-101.01,29.85-147.83c19.13-45.23,46.51-85.84,81.39-120.72,34.88-34.88,75.5-62.26,120.72-81.39C279.28,10.54,329.02.5,380.29.5s101.01,10.04,147.83,29.85c45.23,19.13,85.84,46.51,120.72,81.39,34.88,34.88,62.26,75.5,81.39,120.72,19.8,46.82,29.85,96.56,29.85,147.83s-10.04,101.01-29.85,147.83c-19.13,45.23-46.51,85.84-81.39,120.72s-75.5,62.26-120.72,81.39c-46.82,19.8-96.56,29.85-147.83,29.85Z"/>
    <path d="M380.29,1c51.2,0,100.88,10.03,147.64,29.81,45.17,19.1,85.73,46.45,120.56,81.29,34.83,34.83,62.18,75.4,81.29,120.56,19.78,46.76,29.81,96.43,29.81,147.64s-10.03,100.88-29.81,147.64c-19.1,45.17-46.45,85.73-81.29,120.56-34.83,34.83-75.4,62.18-120.56,81.29-46.76,19.78-96.43,29.81-147.64,29.81s-100.88-10.03-147.64-29.81c-45.17-19.1-85.73-46.45-120.56-81.29s-62.18-75.4-81.29-120.56C11.03,481.17,1,431.5,1,380.29s10.03-100.88,29.81-147.64c19.1-45.17,46.45-85.73,81.29-120.56,34.83-34.83,75.4-62.18,120.56-81.29C279.42,11.03,329.09,1,380.29,1M380.29,0C170.26,0,0,170.26,0,380.29s170.26,380.29,380.29,380.29,380.29-170.26,380.29-380.29S590.32,0,380.29,0h0Z"/>
  </g>
  <g>
    <rect class="cls-1" x="249.98" y="483.15" width="501.1" height="125.67"/>
    <path class="cls-2" d="M256.16,535.72l16.37,12.14v7.48l-3.25,7.37h-16.15l-3.14-7.37v-7.48h6.18v7.48l.54,1.41h9l.65-1.41v-7.48l-16.37-12.14v-28.83l3.14-7.37h16.15l3.25,7.37v24.28h-6.18v-24.28l-.65-1.41h-9l-.54,1.41v28.83Z"/>
    <path class="cls-2" d="M282.6,499.52h12.03v5.96h-12.03v49.86l.54,1.41h9l.65-1.41v-13.44h6.07v13.44l-3.14,7.37h-16.15l-3.14-7.37v-49.86h-2.49v-5.96h2.49v-9.65h6.18v9.65Z"/>
    <path class="cls-2" d="M309.05,555.33l.54,1.41h9l.65-1.41v-49.86h-2.49v-5.96h11.06v5.96h-2.49v49.86l-3.14,7.37h-16.15l-3.14-7.37v-49.86h-2.49v-5.96h11.06v5.96h-2.38v49.86Z"/>
    <path class="cls-2" d="M345.36,562.7h-13.22l-3.14-7.37v-48.45l3.14-7.37h13.22v-10.4h-2.49v-5.96h11.06v5.96h-2.38v67.63h2.38v5.96h-8.56ZM335.17,555.33l.54,1.41h9.65v-51.27h-9.65l-.54,1.41v48.45Z"/>
    <path class="cls-2" d="M364.11,556.74h2.38v5.96h-11.06v-5.96h2.49v-51.27h-2.49v-5.96h11.06v5.96h-2.38v51.27ZM364.11,489.11v6.18h-6.18v-6.18h6.18Z"/>
    <path class="cls-2" d="M386.97,562.7h-16.15l-3.14-7.37v-48.45l3.14-7.37h16.15l3.25,7.37v48.45l-3.25,7.37ZM373.86,555.33l.54,1.41h9l.65-1.41v-48.45l-.65-1.41h-9l-.54,1.41v48.45Z"/>
    <path class="cls-2" d="M439.75,562.7h-13.12l-1.95-4.44v4.44h-10.3l-3.14-7.37v-49.86h-2.49v-5.96h11.05v5.96h-2.38v49.86l.54,1.41h6.07l-.65-1.41v-49.86h-2.49v-5.96h11.16v5.96h-2.49v49.86l.65,1.41h5.53v-51.27h-2.49v-5.96h11.06v5.96h-2.49v57.23h-2.06Z"/>
    <path class="cls-2" d="M451.57,555.33l.54,1.41h9l.65-1.41v-13.44h6.18v13.44l-3.25,7.37h-16.15l-3.14-7.37v-48.45l3.14-7.37h16.15l3.25,7.37v24.28h-16.37v24.17ZM451.57,525.2h10.19v-18.32l-.65-1.41h-9l-.54,1.41v18.32Z"/>
    <path class="cls-2" d="M478.01,483.15h2.38v5.96h-2.38v10.4h13.11l3.14,7.37v48.45l-3.14,7.37h-21.79v-5.96h2.49v-67.63h-2.49v-5.96h8.67ZM488.2,555.33v-48.45l-.65-1.41h-9.54v51.27h9.54l.65-1.41Z"/>
  </g>
  <g>
    <rect class="cls-1" x="230.55" y="174.07" width="387.74" height="309.51"/>
    <path class="cls-2" d="M313.91,201.47v-27.4h56.36v40.31h-7.83v209h7.83v40.31h-56.36v-40.31h7.83v-148.73l-31.31-31.7v180.43h7.83v40.31h-55.97v-40.31h7.83v-209h-7.83v-40.31h45.01l26.61,27.4ZM362.44,206.55v-24.66h-40.7v24.66h7.83v24.66l-46.97-49.31h-32.48v24.66h7.83v224.65h-7.83v24.66h40.7v-24.66h-8.22v-208.22l46.97,49.71v158.51h-7.83v24.66h40.7v-24.66h-7.83v-224.65h7.83Z"/>
    <path class="cls-2" d="M504.9,174.07v51.27h-40.31v-10.96h-28.18v130.72h68.49v118.59h-108.8v-51.27h40.31v10.96h28.18v-40.7h-68.49v-208.61h108.8ZM403.93,181.9v192.95h68.49v56.36h-43.83v-10.96h-24.66v35.62h93.15v-102.93h-68.49v-146.38h43.83v10.96h24.66v-35.62h-93.15Z"/>
  </g>
</svg>