<?xml version="1.0" encoding="UTF-8"?>
<svg id="Calque_1" data-name="Calque 1" xmlns="http://www.w3.org/2000/svg" viewBox="0 0 469.2 469.2">
  <defs>
    <style>
      .cls-1 {
        fill: none;
      }

      .cls-2 {
        fill: #fff;
      }

      .cls-3 {
        fill: #020000;
      }
    </style>
  </defs>
  <g>
    <path class="cls-3" d="M234.6,468.7c-62.53,0-121.32-24.35-165.54-68.57C24.85,355.92.5,297.13.5,234.6S24.85,113.28,69.07,69.07C113.28,24.85,172.07.5,234.6.5s121.32,24.35,165.53,68.57c44.22,44.22,68.57,103,68.57,165.54s-24.35,121.32-68.57,165.53c-44.22,44.22-103,68.57-165.53,68.57Z"/>
    <path d="M234.6,1c31.54,0,62.13,6.18,90.93,18.36,27.82,11.77,52.8,28.61,74.25,50.06,21.45,21.45,38.3,46.44,50.06,74.25,12.18,28.8,18.36,59.39,18.36,90.93s-6.18,62.13-18.36,90.93c-11.77,27.82-28.61,52.8-50.06,74.25-21.45,21.45-46.44,38.3-74.25,50.06-28.8,12.18-59.39,18.36-90.93,18.36s-62.13-6.18-90.93-18.36c-27.82-11.77-52.8-28.61-74.25-50.06-21.45-21.45-38.3-46.44-50.06-74.25C7.18,296.73,1,266.14,1,234.6s6.18-62.13,18.36-90.93c11.77-27.82,28.61-52.8,50.06-74.25,21.45-21.45,46.44-38.3,74.25-50.06C172.47,7.18,203.07,1,234.6,1M234.6,0C105.03,0,0,105.03,0,234.6s105.03,234.6,234.6,234.6,234.6-105.03,234.6-234.6S364.17,0,234.6,0h0Z"/>
  </g>
  <g>
    <rect class="cls-1" x="154.21" y="298.06" width="309.13" height="77.53"/>
    <path class="cls-2" d="M158.02,330.48l10.1,7.49v4.61l-2.01,4.55h-9.96l-1.94-4.55v-4.61h3.81v4.61l.33.87h5.55l.4-.87v-4.61l-10.1-7.49v-17.79l1.94-4.55h9.96l2.01,4.55v14.98h-3.81v-14.98l-.4-.87h-5.55l-.33.87v17.79Z"/>
    <path class="cls-2" d="M174.34,308.15h7.42v3.68h-7.42v30.76l.33.87h5.55l.4-.87v-8.29h3.74v8.29l-1.94,4.55h-9.96l-1.94-4.55v-30.76h-1.54v-3.68h1.54v-5.95h3.81v5.95Z"/>
    <path class="cls-2" d="M190.65,342.58l.33.87h5.55l.4-.87v-30.76h-1.54v-3.68h6.82v3.68h-1.54v30.76l-1.94,4.55h-9.96l-1.94-4.55v-30.76h-1.54v-3.68h6.82v3.68h-1.47v30.76Z"/>
    <path class="cls-2" d="M213.05,347.13h-8.16l-1.94-4.55v-29.89l1.94-4.55h8.16v-6.42h-1.54v-3.68h6.82v3.68h-1.47v41.72h1.47v3.68h-5.28ZM206.76,342.58l.33.87h5.95v-31.63h-5.95l-.33.87v29.89Z"/>
    <path class="cls-2" d="M224.62,343.45h1.47v3.68h-6.82v-3.68h1.54v-31.63h-1.54v-3.68h6.82v3.68h-1.47v31.63ZM224.62,301.73v3.81h-3.81v-3.81h3.81Z"/>
    <path class="cls-2" d="M238.72,347.13h-9.96l-1.94-4.55v-29.89l1.94-4.55h9.96l2.01,4.55v29.89l-2.01,4.55ZM230.63,342.58l.33.87h5.55l.4-.87v-29.89l-.4-.87h-5.55l-.33.87v29.89Z"/>
    <path class="cls-2" d="M271.28,347.13h-8.09l-1.2-2.74v2.74h-6.35l-1.94-4.55v-30.76h-1.54v-3.68h6.82v3.68h-1.47v30.76l.33.87h3.74l-.4-.87v-30.76h-1.54v-3.68h6.89v3.68h-1.54v30.76l.4.87h3.41v-31.63h-1.54v-3.68h6.82v3.68h-1.54v35.3h-1.27Z"/>
    <path class="cls-2" d="M278.57,342.58l.33.87h5.55l.4-.87v-8.29h3.81v8.29l-2.01,4.55h-9.96l-1.94-4.55v-29.89l1.94-4.55h9.96l2.01,4.55v14.98h-10.1v14.91ZM278.57,324h6.29v-11.3l-.4-.87h-5.55l-.33.87v11.3Z"/>
    <path class="cls-2" d="M294.89,298.05h1.47v3.68h-1.47v6.42h8.09l1.94,4.55v29.89l-1.94,4.55h-13.44v-3.68h1.54v-41.72h-1.54v-3.68h5.35ZM301.17,342.58v-29.89l-.4-.87h-5.88v31.63h5.88l.4-.87Z"/>
  </g>
  <g>
    <rect class="cls-1" x="142.22" y="107.39" width="239.2" height="190.94"/>
    <path class="cls-2" d="M193.65,124.28v-16.9h34.77v24.87h-4.83v128.93h4.83v24.87h-34.77v-24.87h4.83v-91.75l-19.32-19.56v111.31h4.83v24.87h-34.53v-24.87h4.83v-128.93h-4.83v-24.87h27.77l16.42,16.9ZM223.59,127.42v-15.21h-25.11v15.21h4.83v15.21l-28.97-30.42h-20.04v15.21h4.83v138.59h-4.83v15.21h25.11v-15.21h-5.07v-128.45l28.97,30.66v97.79h-4.83v15.21h25.11v-15.21h-4.83V127.42h4.83Z"/>
    <path class="cls-2" d="M311.48,107.38v31.63h-24.87v-6.76h-17.38v80.64h42.25v73.16h-67.12v-31.63h24.87v6.76h17.38v-25.11h-42.25V107.38h67.12ZM249.18,112.21v119.03h42.25v34.77h-27.04v-6.76h-15.21v21.97h57.46v-63.5h-42.25v-90.3h27.04v6.76h15.21v-21.97h-57.46Z"/>
  </g>
</svg>